<?xml version="1.0" encoding="UTF-8"?>
<!--Generator: Apple Native CoreSVG 326-->
<!DOCTYPE svg
PUBLIC "-//W3C//DTD SVG 1.1//EN"
       "http://www.w3.org/Graphics/SVG/1.1/DTD/svg11.dtd">
<svg version="1.1" xmlns="http://www.w3.org/2000/svg" xmlns:xlink="http://www.w3.org/1999/xlink" viewBox="0 0 1479.49 1148.93">
 <g>
  <rect height="1148.93" opacity="0" width="1479.49" x="0" y="0"/>
  <path d="M189.941 1148.93L1289.06 1148.93C1415.53 1148.93 1479.49 1085.45 1479.49 960.938L1479.49 189.453C1479.49 64.9414 1415.53 1.46484 1289.06 1.46484L189.941 1.46484C63.9648 1.46484 0 64.4531 0 189.453L0 960.938C0 1085.94 63.9648 1148.93 189.941 1148.93ZM191.895 1062.5C123.535 1062.5 86.4258 1026.37 86.4258 956.543L86.4258 193.848C86.4258 124.023 123.535 87.8906 191.895 87.8906L1287.6 87.8906C1354.49 87.8906 1392.58 124.023 1392.58 193.848L1392.58 956.543C1392.58 1026.37 1354.49 1062.5 1287.6 1062.5ZM472.656 1079.59L557.129 1079.59L557.129 69.3359L472.656 69.3359ZM352.051 322.266C369.141 322.266 383.789 307.129 383.789 291.016C383.789 273.926 369.141 259.766 352.051 259.766L208.496 259.766C191.406 259.766 176.758 273.926 176.758 291.016C176.758 307.129 191.406 322.266 208.496 322.266ZM352.051 487.305C369.141 487.305 383.789 472.656 383.789 456.055C383.789 439.453 369.141 425.293 352.051 425.293L208.496 425.293C191.406 425.293 176.758 439.453 176.758 456.055C176.758 472.656 191.406 487.305 208.496 487.305ZM352.051 652.344C369.141 652.344 383.789 638.184 383.789 621.582C383.789 604.98 369.141 590.82 352.051 590.82L208.496 590.82C191.406 590.82 176.758 604.98 176.758 621.582C176.758 638.184 191.406 652.344 208.496 652.344Z" fill="white" fill-opacity="0.85"/>
 </g>
</svg>
